<svg width="24" height="24" viewBox="0 0 24 24" fill="none" xmlns="http://www.w3.org/2000/svg">
<path d="M4 16.4844C4 17.2456 4.61712 17.8627 5.37838 17.8627H21C21.7613 17.8627 22.3784 17.2456 22.3784 16.4844V5.45733C22.3784 4.69607 21.7613 4.07895 21 4.07895H17.5" stroke="black" stroke-width="1.83784" stroke-linecap="round" stroke-linejoin="round"/>
<path d="M13.1892 17.8627V21.0789M6.75674 21.0789H19.6216" stroke="black" stroke-width="1.83784" stroke-linecap="round" stroke-linejoin="round"/>
<path d="M8.25 5.34211C8.25 4.58833 7.95056 3.86543 7.41757 3.33243C6.88457 2.79944 6.16167 2.5 5.40789 2.5H1.5V12.8026H6.11842C6.68375 12.8026 7.22593 13.0272 7.62568 13.427C8.02542 13.8267 8.25 14.3689 8.25 14.9342M8.25 5.34211V14.9342M8.25 5.34211C8.25 4.58833 8.54943 3.86543 9.08243 3.33243C9.61543 2.79944 10.3383 2.5 11.0921 2.5H15V12.8026H10.3816C9.81625 12.8026 9.27407 13.0272 8.87432 13.427C8.47458 13.8267 8.25 14.3689 8.25 14.9342" stroke="black" stroke-width="1.84" stroke-linejoin="round"/>
</svg>
