<svg width="24" height="24" viewBox="0 0 24 24" fill="none" xmlns="http://www.w3.org/2000/svg">
<path fill-rule="evenodd" clip-rule="evenodd" d="M9.15625 15.6875C9.15625 15.7621 9.12662 15.8336 9.07387 15.8864C9.02113 15.9391 8.94959 15.9687 8.875 15.9687H6.625C6.55041 15.9687 6.47887 15.9391 6.42613 15.8864C6.37338 15.8336 6.34375 15.7621 6.34375 15.6875C6.34375 15.6129 6.37338 15.5414 6.42613 15.4886C6.47887 15.4359 6.55041 15.4062 6.625 15.4062H8.875C8.94959 15.4062 9.02113 15.4359 9.07387 15.4886C9.12662 15.5414 9.15625 15.6129 9.15625 15.6875Z" fill="black"/>
<path fill-rule="evenodd" clip-rule="evenodd" d="M1 12.0312C1 15.9145 4.148 19.0625 8.03125 19.0625C9.61429 19.0625 11.075 18.5394 12.25 17.6567C13.425 18.5394 14.8857 19.0625 16.4688 19.0625C20.352 19.0625 23.5 15.9145 23.5 12.0312C23.5 8.148 20.352 5 16.4688 5C14.8857 5 13.425 5.52313 12.25 6.40578C11.075 5.52315 9.61429 5 8.03125 5C4.148 5 1 8.148 1 12.0312ZM8.03125 5.5625C4.45866 5.5625 1.5625 8.45866 1.5625 12.0312C1.5625 15.6038 4.45866 18.5 8.03125 18.5C9.43742 18.5 10.739 18.0513 11.8004 17.2891C11.0438 16.6169 10.4334 15.7839 10.0226 14.8437H4.9375C4.71372 14.8437 4.49911 14.7549 4.34088 14.5966C4.18264 14.4384 4.09375 14.2238 4.09375 14V10.0625C4.09375 9.83872 4.18264 9.62411 4.34088 9.46588C4.49911 9.30764 4.71372 9.21875 4.9375 9.21875H10.0226C10.4334 8.27864 11.0438 7.44562 11.8004 6.77338C10.739 6.01118 9.43743 5.5625 8.03125 5.5625ZM14.4248 9.10143L14.4399 9.13432L14.4548 9.21875H15.3438C15.5621 9.21875 15.7774 9.26958 15.9726 9.36721C16.1679 9.46484 16.3378 9.6066 16.4688 9.78125C16.5997 9.6066 16.7696 9.46484 16.9649 9.36721C17.1601 9.26958 17.3754 9.21875 17.5938 9.21875H19.8438C19.9929 9.21875 20.136 9.27801 20.2415 9.3835C20.347 9.48899 20.4063 9.63207 20.4063 9.78125V14.2812C20.4063 14.4304 20.347 14.5735 20.2415 14.679C20.136 14.7845 19.9929 14.8437 19.8438 14.8437H17.5938C17.37 14.8437 17.1554 14.9326 16.9971 15.0909C16.8389 15.2491 16.75 15.4637 16.75 15.6875C16.75 15.7621 16.7204 15.8336 16.6676 15.8864C16.6149 15.9391 16.5433 15.9687 16.4688 15.9687C16.3942 15.9687 16.3226 15.9391 16.2699 15.8864C16.2171 15.8336 16.1875 15.7621 16.1875 15.6875C16.1875 15.4637 16.0986 15.2491 15.9404 15.0909C15.7821 14.9326 15.5675 14.8437 15.3438 14.8437H14.4774C14.0666 15.7839 13.4562 16.6169 12.6996 17.2891C13.761 18.0513 15.0626 18.5 16.4688 18.5C20.0413 18.5 22.9375 15.6038 22.9375 12.0312C22.9375 8.45866 20.0413 5.5625 16.4688 5.5625C15.0626 5.5625 13.761 6.0112 12.6996 6.77338C13.4246 7.41754 14.0154 8.20931 14.4248 9.10143ZM13.0938 14.2812V14.8437H13.8583C13.4696 15.6476 12.9194 16.3588 12.25 16.9352C11.5796 16.358 11.0288 15.6455 10.64 14.8402C10.8353 14.8222 11.0193 14.7365 11.1591 14.5966C11.3174 14.4384 11.4062 14.2238 11.4062 14V10.0625C11.4062 9.83872 11.3174 9.62411 11.1591 9.46588C11.0193 9.32601 10.8353 9.24032 10.64 9.22231C11.0288 8.41694 11.5796 7.70453 12.25 7.12729C12.9194 7.70367 13.4695 8.41483 13.8583 9.21875H13.0938C12.9446 9.21875 12.8015 9.27801 12.696 9.3835C12.5905 9.48899 12.5312 9.63207 12.5312 9.78125V14.2812C12.5312 14.4304 12.5905 14.5735 12.696 14.679C12.8015 14.7845 12.9446 14.8437 13.0938 14.8437V14.2812V9.78125H15.3438C15.5675 9.78125 15.7821 9.87014 15.9404 10.0284C16.0986 10.1866 16.1875 10.4012 16.1875 10.625V14.5625C15.9443 14.3795 15.6481 14.2808 15.3438 14.2812H13.0938ZM17.5938 14.2812H19.8438V9.78125H17.5938C17.37 9.78125 17.1554 9.87014 16.9971 10.0284C16.8389 10.1866 16.75 10.4012 16.75 10.625V14.5625C16.9932 14.3795 17.2894 14.2808 17.5938 14.2812ZM10.7614 14.1989C10.8141 14.1461 10.8437 14.0746 10.8437 14V10.0625C10.8437 9.98791 10.8141 9.91637 10.7614 9.86363C10.7086 9.81088 10.6371 9.78125 10.5625 9.78125H4.9375C4.86291 9.78125 4.79137 9.81088 4.73863 9.86363C4.68588 9.91637 4.65625 9.98791 4.65625 10.0625V14C4.65625 14.0746 4.68588 14.1461 4.73863 14.1989C4.79137 14.2516 4.86291 14.2812 4.9375 14.2812H10.5625C10.6371 14.2812 10.7086 14.2516 10.7614 14.1989Z" fill="black"/>
<path d="M13.0938 9.78125V14.8437M13.0938 9.78125V14.2812M13.0938 9.78125H15.3438C15.5675 9.78125 15.7821 9.87014 15.9404 10.0284C16.0986 10.1866 16.1875 10.4012 16.1875 10.625V14.5625C15.9443 14.3795 15.6481 14.2808 15.3438 14.2812H13.0938M13.0938 14.8437C12.9446 14.8437 12.8015 14.7845 12.696 14.679C12.5905 14.5735 12.5312 14.4304 12.5312 14.2812V9.78125C12.5312 9.63207 12.5905 9.48899 12.696 9.3835C12.8015 9.27801 12.9446 9.21875 13.0938 9.21875H13.8583C13.4695 8.41483 12.9194 7.70367 12.25 7.12729C11.5796 7.70453 11.0288 8.41694 10.64 9.22231C10.8353 9.24032 11.0193 9.32601 11.1591 9.46588C11.3174 9.62411 11.4062 9.83872 11.4062 10.0625V14C11.4062 14.2238 11.3174 14.4384 11.1591 14.5966C11.0193 14.7365 10.8353 14.8222 10.64 14.8402C11.0288 15.6455 11.5796 16.358 12.25 16.9352C12.9194 16.3588 13.4696 15.6476 13.8583 14.8437H13.0938ZM13.0938 14.8437V14.2812M1.5625 12.0312C1.5625 8.45866 4.45866 5.5625 8.03125 5.5625C9.43743 5.5625 10.739 6.01118 11.8004 6.77338C11.0438 7.44562 10.4334 8.27864 10.0226 9.21875H4.9375C4.71372 9.21875 4.49911 9.30764 4.34088 9.46588C4.18264 9.62411 4.09375 9.83872 4.09375 10.0625V14C4.09375 14.2238 4.18264 14.4384 4.34088 14.5966C4.49911 14.7549 4.71372 14.8437 4.9375 14.8437H10.0226C10.4334 15.7839 11.0438 16.6169 11.8004 17.2891C10.739 18.0513 9.43742 18.5 8.03125 18.5C4.45866 18.5 1.5625 15.6038 1.5625 12.0312ZM8.03125 19.0625C4.148 19.0625 1 15.9145 1 12.0312C1 8.148 4.148 5 8.03125 5C9.61429 5 11.075 5.52315 12.25 6.40578C13.425 5.52313 14.8857 5 16.4688 5C20.352 5 23.5 8.148 23.5 12.0312C23.5 15.9145 20.352 19.0625 16.4688 19.0625C14.8857 19.0625 13.425 18.5394 12.25 17.6567C11.075 18.5394 9.61429 19.0625 8.03125 19.0625ZM14.4248 9.10143L14.4399 9.13432L14.4548 9.21875H15.3438C15.5621 9.21875 15.7774 9.26958 15.9726 9.36721C16.1679 9.46484 16.3378 9.6066 16.4688 9.78125C16.5997 9.6066 16.7696 9.46484 16.9649 9.36721C17.1601 9.26958 17.3754 9.21875 17.5938 9.21875H19.8438C19.9929 9.21875 20.136 9.27801 20.2415 9.3835C20.347 9.48899 20.4063 9.63207 20.4063 9.78125V14.2812C20.4063 14.4304 20.347 14.5735 20.2415 14.679C20.136 14.7845 19.9929 14.8437 19.8438 14.8437H17.5938C17.37 14.8437 17.1554 14.9326 16.9971 15.0909C16.8389 15.2491 16.75 15.4637 16.75 15.6875C16.75 15.7621 16.7204 15.8336 16.6676 15.8864C16.6149 15.9391 16.5433 15.9687 16.4688 15.9687C16.3942 15.9687 16.3226 15.9391 16.2699 15.8864C16.2171 15.8336 16.1875 15.7621 16.1875 15.6875C16.1875 15.4637 16.0986 15.2491 15.9404 15.0909C15.7821 14.9326 15.5675 14.8437 15.3438 14.8437H14.4774C14.0666 15.7839 13.4562 16.6169 12.6996 17.2891C13.761 18.0513 15.0626 18.5 16.4688 18.5C20.0413 18.5 22.9375 15.6038 22.9375 12.0312C22.9375 8.45866 20.0413 5.5625 16.4688 5.5625C15.0626 5.5625 13.761 6.0112 12.6996 6.77338C13.4246 7.41754 14.0154 8.20931 14.4248 9.10143ZM19.8438 14.2812H17.5938C17.2894 14.2808 16.9932 14.3795 16.75 14.5625V10.625C16.75 10.4012 16.8389 10.1866 16.9971 10.0284C17.1554 9.87014 17.37 9.78125 17.5938 9.78125H19.8438V14.2812ZM10.8437 14C10.8437 14.0746 10.8141 14.1461 10.7614 14.1989C10.7086 14.2516 10.6371 14.2812 10.5625 14.2812H4.9375C4.86291 14.2812 4.79137 14.2516 4.73863 14.1989C4.68588 14.1461 4.65625 14.0746 4.65625 14V10.0625C4.65625 9.98791 4.68588 9.91637 4.73863 9.86363C4.79137 9.81088 4.86291 9.78125 4.9375 9.78125H10.5625C10.6371 9.78125 10.7086 9.81088 10.7614 9.86363C10.8141 9.91637 10.8437 9.98791 10.8437 10.0625V14ZM9.15625 15.6875C9.15625 15.7621 9.12662 15.8336 9.07387 15.8864C9.02113 15.9391 8.94959 15.9687 8.875 15.9687H6.625C6.55041 15.9687 6.47887 15.9391 6.42613 15.8864C6.37338 15.8336 6.34375 15.7621 6.34375 15.6875C6.34375 15.6129 6.37338 15.5414 6.42613 15.4886C6.47887 15.4359 6.55041 15.4062 6.625 15.4062H8.875C8.94959 15.4062 9.02113 15.4359 9.07387 15.4886C9.12662 15.5414 9.15625 15.6129 9.15625 15.6875Z" stroke="black" stroke-width="0.45"/>
</svg>
